<mxfile host="app.diagrams.net" agent="Mozilla/5.0 (Windows NT 10.0; Win64; x64) AppleWebKit/537.36 (KHTML, like Gecko) Chrome/123.0.0.0 Safari/537.36 OPR/109.0.0.0" version="24.7.7">
  <diagram name="PÃ¡gina-1" id="FHienhPEfKgyq41wuvRM">
    <mxGraphModel dx="2509" dy="903" grid="1" gridSize="10" guides="1" tooltips="1" connect="1" arrows="1" fold="1" page="1" pageScale="1" pageWidth="827" pageHeight="1169" math="0" shadow="0">
      <root>
        <mxCell id="0" />
        <mxCell id="1" parent="0" />
        <mxCell id="uLEs7efsvwYyZU_ZEpff-1" value="Reservar una Cita - Objetivo" style="shape=table;childLayout=tableLayout;startSize=40;collapsible=0;recursiveResize=0;expand=0;fontSize=16;fontStyle=1" parent="1" vertex="1">
          <mxGeometry x="-200" y="200" width="1440" height="810" as="geometry" />
        </mxCell>
        <mxCell id="uLEs7efsvwYyZU_ZEpff-2" value="Cliente" style="shape=tableRow;horizontal=0;swimlaneHead=0;swimlaneBody=0;top=0;left=0;strokeColor=inherit;bottom=0;right=0;dropTarget=0;fontStyle=1;fillColor=none;points=[[0,0.5],[1,0.5]];portConstraint=eastwest;startSize=40;collapsible=0;recursiveResize=0;expand=0;fontSize=16;" parent="uLEs7efsvwYyZU_ZEpff-1" vertex="1">
          <mxGeometry y="40" width="1440" height="250" as="geometry" />
        </mxCell>
        <mxCell id="uLEs7efsvwYyZU_ZEpff-3" value="Estado inicial" style="swimlane;swimlaneHead=0;swimlaneBody=0;fontStyle=1;strokeColor=inherit;connectable=0;fillColor=none;startSize=40;collapsible=0;recursiveResize=0;expand=0;fontSize=16;" parent="uLEs7efsvwYyZU_ZEpff-2" vertex="1">
          <mxGeometry x="40" width="390" height="250" as="geometry">
            <mxRectangle width="390" height="250" as="alternateBounds" />
          </mxGeometry>
        </mxCell>
        <mxCell id="5yFkNNCPkQba19u_5EOz-1" value="El&amp;nbsp; cliente ingresa al sistema de reservas para separar una cita" style="rounded=0;whiteSpace=wrap;html=1;fontSize=14;" parent="uLEs7efsvwYyZU_ZEpff-3" vertex="1">
          <mxGeometry x="155" y="87.5" width="185" height="51" as="geometry" />
        </mxCell>
        <mxCell id="5yFkNNCPkQba19u_5EOz-22" style="edgeStyle=orthogonalEdgeStyle;rounded=0;orthogonalLoop=1;jettySize=auto;html=1;exitX=1;exitY=0.5;exitDx=0;exitDy=0;exitPerimeter=0;entryX=0;entryY=0.5;entryDx=0;entryDy=0;" parent="uLEs7efsvwYyZU_ZEpff-3" source="5yFkNNCPkQba19u_5EOz-20" target="5yFkNNCPkQba19u_5EOz-1" edge="1">
          <mxGeometry relative="1" as="geometry" />
        </mxCell>
        <mxCell id="5yFkNNCPkQba19u_5EOz-20" value="" style="points=[[0.145,0.145,0],[0.5,0,0],[0.855,0.145,0],[1,0.5,0],[0.855,0.855,0],[0.5,1,0],[0.145,0.855,0],[0,0.5,0]];shape=mxgraph.bpmn.event;html=1;verticalLabelPosition=bottom;labelBackgroundColor=#ffffff;verticalAlign=top;align=center;perimeter=ellipsePerimeter;outlineConnect=0;aspect=fixed;outline=standard;symbol=general;" parent="uLEs7efsvwYyZU_ZEpff-3" vertex="1">
          <mxGeometry x="20" y="87.5" width="50" height="50" as="geometry" />
        </mxCell>
        <mxCell id="uLEs7efsvwYyZU_ZEpff-4" value="Estado Intermedio" style="swimlane;swimlaneHead=0;swimlaneBody=0;fontStyle=1;strokeColor=inherit;connectable=0;fillColor=none;startSize=40;collapsible=0;recursiveResize=0;expand=0;fontSize=16;" parent="uLEs7efsvwYyZU_ZEpff-2" vertex="1">
          <mxGeometry x="430" width="410" height="250" as="geometry">
            <mxRectangle width="410" height="250" as="alternateBounds" />
          </mxGeometry>
        </mxCell>
        <mxCell id="5yFkNNCPkQba19u_5EOz-12" value="El cliente toma la cita" style="strokeWidth=2;html=1;shape=mxgraph.flowchart.decision;whiteSpace=wrap;fontSize=13;" parent="uLEs7efsvwYyZU_ZEpff-4" vertex="1">
          <mxGeometry x="110" y="50" width="106" height="110" as="geometry" />
        </mxCell>
        <mxCell id="5yFkNNCPkQba19u_5EOz-28" value="&lt;font style=&quot;font-size: 16px;&quot;&gt;NO&lt;/font&gt;" style="text;html=1;align=center;verticalAlign=middle;resizable=0;points=[];autosize=1;strokeColor=none;fillColor=none;" parent="uLEs7efsvwYyZU_ZEpff-4" vertex="1">
          <mxGeometry x="50" y="60" width="50" height="30" as="geometry" />
        </mxCell>
        <mxCell id="5yFkNNCPkQba19u_5EOz-35" value="" style="points=[[0.145,0.145,0],[0.5,0,0],[0.855,0.145,0],[1,0.5,0],[0.855,0.855,0],[0.5,1,0],[0.145,0.855,0],[0,0.5,0]];shape=mxgraph.bpmn.event;html=1;verticalLabelPosition=bottom;labelBackgroundColor=#ffffff;verticalAlign=top;align=center;perimeter=ellipsePerimeter;outlineConnect=0;aspect=fixed;outline=end;symbol=terminate;" parent="uLEs7efsvwYyZU_ZEpff-4" vertex="1">
          <mxGeometry x="40" y="160" width="50" height="50" as="geometry" />
        </mxCell>
        <mxCell id="5yFkNNCPkQba19u_5EOz-36" style="edgeStyle=orthogonalEdgeStyle;rounded=0;orthogonalLoop=1;jettySize=auto;html=1;exitX=0;exitY=0.5;exitDx=0;exitDy=0;exitPerimeter=0;entryX=0.5;entryY=0;entryDx=0;entryDy=0;entryPerimeter=0;" parent="uLEs7efsvwYyZU_ZEpff-4" source="5yFkNNCPkQba19u_5EOz-12" target="5yFkNNCPkQba19u_5EOz-35" edge="1">
          <mxGeometry relative="1" as="geometry" />
        </mxCell>
        <mxCell id="5yFkNNCPkQba19u_5EOz-14" value="Si" style="text;html=1;align=center;verticalAlign=middle;resizable=0;points=[];autosize=1;strokeColor=none;fillColor=none;fontSize=17;" parent="uLEs7efsvwYyZU_ZEpff-4" vertex="1">
          <mxGeometry x="200" y="57.5" width="40" height="30" as="geometry" />
        </mxCell>
        <mxCell id="uLEs7efsvwYyZU_ZEpff-5" value="Estado Final" style="swimlane;swimlaneHead=0;swimlaneBody=0;fontStyle=1;strokeColor=inherit;connectable=0;fillColor=none;startSize=40;collapsible=0;recursiveResize=0;expand=0;fontSize=16;" parent="uLEs7efsvwYyZU_ZEpff-2" vertex="1">
          <mxGeometry x="840" width="600" height="250" as="geometry">
            <mxRectangle width="600" height="250" as="alternateBounds" />
          </mxGeometry>
        </mxCell>
        <mxCell id="5yFkNNCPkQba19u_5EOz-17" value="El Cliente se dirige a la Barberia y recibe el servicio" style="rounded=0;whiteSpace=wrap;html=1;fontSize=14;" parent="uLEs7efsvwYyZU_ZEpff-5" vertex="1">
          <mxGeometry x="76" y="87.5" width="184" height="55" as="geometry" />
        </mxCell>
        <mxCell id="5yFkNNCPkQba19u_5EOz-33" value="" style="points=[[0.145,0.145,0],[0.5,0,0],[0.855,0.145,0],[1,0.5,0],[0.855,0.855,0],[0.5,1,0],[0.145,0.855,0],[0,0.5,0]];shape=mxgraph.bpmn.event;html=1;verticalLabelPosition=bottom;labelBackgroundColor=#ffffff;verticalAlign=top;align=center;perimeter=ellipsePerimeter;outlineConnect=0;aspect=fixed;outline=end;symbol=terminate;" parent="uLEs7efsvwYyZU_ZEpff-5" vertex="1">
          <mxGeometry x="530" y="170" width="50" height="50" as="geometry" />
        </mxCell>
        <mxCell id="t2hq5Q3vTPY8hlob5dI2-23" style="edgeStyle=orthogonalEdgeStyle;rounded=0;orthogonalLoop=1;jettySize=auto;html=1;exitX=1;exitY=0.5;exitDx=0;exitDy=0;" parent="uLEs7efsvwYyZU_ZEpff-5" source="t2hq5Q3vTPY8hlob5dI2-21" target="5yFkNNCPkQba19u_5EOz-33" edge="1">
          <mxGeometry relative="1" as="geometry" />
        </mxCell>
        <mxCell id="t2hq5Q3vTPY8hlob5dI2-21" value="El Cliente Paga por el servicio Adquirido" style="rounded=0;whiteSpace=wrap;html=1;fontSize=14;" parent="uLEs7efsvwYyZU_ZEpff-5" vertex="1">
          <mxGeometry x="310" y="90" width="184" height="55" as="geometry" />
        </mxCell>
        <mxCell id="uLEs7efsvwYyZU_ZEpff-6" value="Sistema" style="shape=tableRow;horizontal=0;swimlaneHead=0;swimlaneBody=0;top=0;left=0;strokeColor=inherit;bottom=0;right=0;dropTarget=0;fontStyle=1;fillColor=none;points=[[0,0.5],[1,0.5]];portConstraint=eastwest;startSize=40;collapsible=0;recursiveResize=0;expand=0;fontSize=16;" parent="uLEs7efsvwYyZU_ZEpff-1" vertex="1">
          <mxGeometry y="290" width="1440" height="263" as="geometry" />
        </mxCell>
        <mxCell id="uLEs7efsvwYyZU_ZEpff-7" value="" style="swimlane;swimlaneHead=0;swimlaneBody=0;fontStyle=1;connectable=0;strokeColor=inherit;fillColor=none;startSize=0;collapsible=0;recursiveResize=0;expand=0;fontSize=16;" parent="uLEs7efsvwYyZU_ZEpff-6" vertex="1">
          <mxGeometry x="40" width="390" height="263" as="geometry">
            <mxRectangle width="390" height="263" as="alternateBounds" />
          </mxGeometry>
        </mxCell>
        <mxCell id="5yFkNNCPkQba19u_5EOz-24" style="edgeStyle=orthogonalEdgeStyle;rounded=0;orthogonalLoop=1;jettySize=auto;html=1;exitX=0;exitY=0.5;exitDx=0;exitDy=0;exitPerimeter=0;entryX=1;entryY=0.5;entryDx=0;entryDy=0;entryPerimeter=0;" parent="uLEs7efsvwYyZU_ZEpff-7" source="5yFkNNCPkQba19u_5EOz-3" target="5yFkNNCPkQba19u_5EOz-26" edge="1">
          <mxGeometry relative="1" as="geometry">
            <mxPoint x="130" y="205" as="targetPoint" />
          </mxGeometry>
        </mxCell>
        <mxCell id="5yFkNNCPkQba19u_5EOz-3" value="El Sistema revisa disponibilidad" style="strokeWidth=2;html=1;shape=mxgraph.flowchart.decision;whiteSpace=wrap;fontSize=13;" parent="uLEs7efsvwYyZU_ZEpff-7" vertex="1">
          <mxGeometry x="175" y="40" width="120" height="120" as="geometry" />
        </mxCell>
        <mxCell id="5yFkNNCPkQba19u_5EOz-8" value="NO" style="text;html=1;align=center;verticalAlign=middle;resizable=0;points=[];autosize=1;strokeColor=none;fillColor=none;" parent="uLEs7efsvwYyZU_ZEpff-7" vertex="1">
          <mxGeometry x="170" y="130" width="40" height="30" as="geometry" />
        </mxCell>
        <mxCell id="5yFkNNCPkQba19u_5EOz-5" value="SI" style="text;html=1;align=center;verticalAlign=middle;resizable=0;points=[];autosize=1;strokeColor=none;fillColor=none;" parent="uLEs7efsvwYyZU_ZEpff-7" vertex="1">
          <mxGeometry x="260" y="40" width="30" height="30" as="geometry" />
        </mxCell>
        <mxCell id="5yFkNNCPkQba19u_5EOz-26" value="" style="points=[[0.145,0.145,0],[0.5,0,0],[0.855,0.145,0],[1,0.5,0],[0.855,0.855,0],[0.5,1,0],[0.145,0.855,0],[0,0.5,0]];shape=mxgraph.bpmn.event;html=1;verticalLabelPosition=bottom;labelBackgroundColor=#ffffff;verticalAlign=top;align=center;perimeter=ellipsePerimeter;outlineConnect=0;aspect=fixed;outline=end;symbol=terminate;" parent="uLEs7efsvwYyZU_ZEpff-7" vertex="1">
          <mxGeometry x="60" y="170" width="50" height="50" as="geometry" />
        </mxCell>
        <mxCell id="uLEs7efsvwYyZU_ZEpff-8" value="" style="swimlane;swimlaneHead=0;swimlaneBody=0;fontStyle=1;connectable=0;strokeColor=inherit;fillColor=none;startSize=0;collapsible=0;recursiveResize=0;expand=0;fontSize=16;" parent="uLEs7efsvwYyZU_ZEpff-6" vertex="1">
          <mxGeometry x="430" width="410" height="263" as="geometry">
            <mxRectangle width="410" height="263" as="alternateBounds" />
          </mxGeometry>
        </mxCell>
        <mxCell id="5yFkNNCPkQba19u_5EOz-7" value="El sistema muestra la citas disponibles" style="rounded=0;whiteSpace=wrap;html=1;fontSize=14;" parent="uLEs7efsvwYyZU_ZEpff-8" vertex="1">
          <mxGeometry x="40" y="69.99571428571443" width="120" height="60" as="geometry" />
        </mxCell>
        <mxCell id="5yFkNNCPkQba19u_5EOz-37" value="El sistema confirma la cita" style="rounded=0;whiteSpace=wrap;html=1;fontSize=14;" parent="uLEs7efsvwYyZU_ZEpff-8" vertex="1">
          <mxGeometry x="270" y="59.99571428571443" width="120" height="60" as="geometry" />
        </mxCell>
        <mxCell id="uLEs7efsvwYyZU_ZEpff-9" value="" style="swimlane;swimlaneHead=0;swimlaneBody=0;fontStyle=1;connectable=0;strokeColor=inherit;fillColor=none;startSize=0;collapsible=0;recursiveResize=0;expand=0;fontSize=16;" parent="uLEs7efsvwYyZU_ZEpff-6" vertex="1">
          <mxGeometry x="840" width="600" height="263" as="geometry">
            <mxRectangle width="600" height="263" as="alternateBounds" />
          </mxGeometry>
        </mxCell>
        <mxCell id="5yFkNNCPkQba19u_5EOz-6" style="edgeStyle=orthogonalEdgeStyle;rounded=0;orthogonalLoop=1;jettySize=auto;html=1;exitX=1;exitY=0.5;exitDx=0;exitDy=0;exitPerimeter=0;" parent="uLEs7efsvwYyZU_ZEpff-6" source="5yFkNNCPkQba19u_5EOz-3" target="5yFkNNCPkQba19u_5EOz-7" edge="1">
          <mxGeometry relative="1" as="geometry">
            <mxPoint x="530" y="90.28571428571445" as="targetPoint" />
          </mxGeometry>
        </mxCell>
        <mxCell id="uLEs7efsvwYyZU_ZEpff-10" value="Barbero" style="shape=tableRow;horizontal=0;swimlaneHead=0;swimlaneBody=0;top=0;left=0;strokeColor=inherit;bottom=0;right=0;dropTarget=0;fontStyle=1;fillColor=none;points=[[0,0.5],[1,0.5]];portConstraint=eastwest;startSize=40;collapsible=0;recursiveResize=0;expand=0;fontSize=16;" parent="uLEs7efsvwYyZU_ZEpff-1" vertex="1">
          <mxGeometry y="553" width="1440" height="257" as="geometry" />
        </mxCell>
        <mxCell id="uLEs7efsvwYyZU_ZEpff-11" value="" style="swimlane;swimlaneHead=0;swimlaneBody=0;fontStyle=1;connectable=0;strokeColor=inherit;fillColor=none;startSize=0;collapsible=0;recursiveResize=0;expand=0;fontSize=16;" parent="uLEs7efsvwYyZU_ZEpff-10" vertex="1">
          <mxGeometry x="40" width="390" height="257" as="geometry">
            <mxRectangle width="390" height="257" as="alternateBounds" />
          </mxGeometry>
        </mxCell>
        <mxCell id="t2hq5Q3vTPY8hlob5dI2-8" style="edgeStyle=orthogonalEdgeStyle;rounded=0;orthogonalLoop=1;jettySize=auto;html=1;exitX=1;exitY=0.5;exitDx=0;exitDy=0;exitPerimeter=0;" parent="uLEs7efsvwYyZU_ZEpff-11" source="t2hq5Q3vTPY8hlob5dI2-6" target="t2hq5Q3vTPY8hlob5dI2-7" edge="1">
          <mxGeometry relative="1" as="geometry" />
        </mxCell>
        <mxCell id="t2hq5Q3vTPY8hlob5dI2-6" value="" style="points=[[0.145,0.145,0],[0.5,0,0],[0.855,0.145,0],[1,0.5,0],[0.855,0.855,0],[0.5,1,0],[0.145,0.855,0],[0,0.5,0]];shape=mxgraph.bpmn.event;html=1;verticalLabelPosition=bottom;labelBackgroundColor=#ffffff;verticalAlign=top;align=center;perimeter=ellipsePerimeter;outlineConnect=0;aspect=fixed;outline=standard;symbol=general;" parent="uLEs7efsvwYyZU_ZEpff-11" vertex="1">
          <mxGeometry x="30" y="68.5" width="50" height="50" as="geometry" />
        </mxCell>
        <mxCell id="t2hq5Q3vTPY8hlob5dI2-7" value="El Barbero Abre una agenda diaria" style="rounded=0;whiteSpace=wrap;html=1;fontSize=14;" parent="uLEs7efsvwYyZU_ZEpff-11" vertex="1">
          <mxGeometry x="142.5" y="68.5" width="185" height="51" as="geometry" />
        </mxCell>
        <mxCell id="uLEs7efsvwYyZU_ZEpff-12" value="" style="swimlane;swimlaneHead=0;swimlaneBody=0;fontStyle=1;connectable=0;strokeColor=inherit;fillColor=none;startSize=0;collapsible=0;recursiveResize=0;expand=0;fontSize=16;" parent="uLEs7efsvwYyZU_ZEpff-10" vertex="1">
          <mxGeometry x="430" width="410" height="257" as="geometry">
            <mxRectangle width="410" height="257" as="alternateBounds" />
          </mxGeometry>
        </mxCell>
        <mxCell id="t2hq5Q3vTPY8hlob5dI2-14" value="El Barbero acepta el servicio" style="strokeWidth=2;html=1;shape=mxgraph.flowchart.decision;whiteSpace=wrap;fontSize=13;" parent="uLEs7efsvwYyZU_ZEpff-12" vertex="1">
          <mxGeometry x="40" y="39" width="106" height="110" as="geometry" />
        </mxCell>
        <mxCell id="t2hq5Q3vTPY8hlob5dI2-16" value="&lt;font style=&quot;font-size: 16px;&quot;&gt;NO&lt;/font&gt;" style="text;html=1;align=center;verticalAlign=middle;resizable=0;points=[];autosize=1;strokeColor=none;fillColor=none;" parent="uLEs7efsvwYyZU_ZEpff-12" vertex="1">
          <mxGeometry x="10" y="119" width="50" height="30" as="geometry" />
        </mxCell>
        <mxCell id="t2hq5Q3vTPY8hlob5dI2-17" value="Si" style="text;html=1;align=center;verticalAlign=middle;resizable=0;points=[];autosize=1;strokeColor=none;fillColor=none;fontSize=17;" parent="uLEs7efsvwYyZU_ZEpff-12" vertex="1">
          <mxGeometry x="120" y="39" width="40" height="30" as="geometry" />
        </mxCell>
        <mxCell id="pYo4tnADKksWNFbosHet-1" value="El sistema informa al barbero sobre la cita" style="rounded=0;whiteSpace=wrap;html=1;fontSize=14;" vertex="1" parent="uLEs7efsvwYyZU_ZEpff-12">
          <mxGeometry x="220" y="149" width="170" height="60" as="geometry" />
        </mxCell>
        <mxCell id="uLEs7efsvwYyZU_ZEpff-13" value="" style="swimlane;swimlaneHead=0;swimlaneBody=0;fontStyle=1;connectable=0;strokeColor=inherit;fillColor=none;startSize=0;collapsible=0;recursiveResize=0;expand=0;fontSize=16;" parent="uLEs7efsvwYyZU_ZEpff-10" vertex="1">
          <mxGeometry x="840" width="600" height="257" as="geometry">
            <mxRectangle width="600" height="257" as="alternateBounds" />
          </mxGeometry>
        </mxCell>
        <mxCell id="5yFkNNCPkQba19u_5EOz-19" value="El barbero presta el servicio" style="rounded=0;whiteSpace=wrap;html=1;fontSize=14;" parent="uLEs7efsvwYyZU_ZEpff-13" vertex="1">
          <mxGeometry x="70" y="37" width="144" height="53" as="geometry" />
        </mxCell>
        <mxCell id="5yFkNNCPkQba19u_5EOz-18" style="edgeStyle=orthogonalEdgeStyle;rounded=0;orthogonalLoop=1;jettySize=auto;html=1;exitX=0.5;exitY=1;exitDx=0;exitDy=0;" parent="uLEs7efsvwYyZU_ZEpff-1" source="5yFkNNCPkQba19u_5EOz-17" target="5yFkNNCPkQba19u_5EOz-19" edge="1">
          <mxGeometry relative="1" as="geometry">
            <mxPoint x="1002" y="630" as="targetPoint" />
            <Array as="points">
              <mxPoint x="950" y="183" />
            </Array>
          </mxGeometry>
        </mxCell>
        <mxCell id="5yFkNNCPkQba19u_5EOz-23" style="edgeStyle=orthogonalEdgeStyle;rounded=0;orthogonalLoop=1;jettySize=auto;html=1;exitX=0.5;exitY=1;exitDx=0;exitDy=0;entryX=0.5;entryY=0;entryDx=0;entryDy=0;entryPerimeter=0;" parent="uLEs7efsvwYyZU_ZEpff-1" source="5yFkNNCPkQba19u_5EOz-1" target="5yFkNNCPkQba19u_5EOz-3" edge="1">
          <mxGeometry relative="1" as="geometry">
            <Array as="points">
              <mxPoint x="275" y="179" />
            </Array>
          </mxGeometry>
        </mxCell>
        <mxCell id="5yFkNNCPkQba19u_5EOz-27" style="edgeStyle=orthogonalEdgeStyle;rounded=0;orthogonalLoop=1;jettySize=auto;html=1;exitX=0.5;exitY=0;exitDx=0;exitDy=0;entryX=0.5;entryY=1;entryDx=0;entryDy=0;entryPerimeter=0;" parent="uLEs7efsvwYyZU_ZEpff-1" source="5yFkNNCPkQba19u_5EOz-7" target="5yFkNNCPkQba19u_5EOz-12" edge="1">
          <mxGeometry relative="1" as="geometry">
            <Array as="points">
              <mxPoint x="590" y="360" />
              <mxPoint x="590" y="210" />
              <mxPoint x="593" y="210" />
            </Array>
          </mxGeometry>
        </mxCell>
        <mxCell id="5yFkNNCPkQba19u_5EOz-39" style="edgeStyle=orthogonalEdgeStyle;rounded=0;orthogonalLoop=1;jettySize=auto;html=1;exitX=1;exitY=0.5;exitDx=0;exitDy=0;entryX=0;entryY=0.25;entryDx=0;entryDy=0;" parent="uLEs7efsvwYyZU_ZEpff-1" source="5yFkNNCPkQba19u_5EOz-37" target="5yFkNNCPkQba19u_5EOz-17" edge="1">
          <mxGeometry relative="1" as="geometry">
            <Array as="points">
              <mxPoint x="890" y="380" />
              <mxPoint x="890" y="141" />
            </Array>
          </mxGeometry>
        </mxCell>
        <mxCell id="t2hq5Q3vTPY8hlob5dI2-9" style="edgeStyle=orthogonalEdgeStyle;rounded=0;orthogonalLoop=1;jettySize=auto;html=1;exitX=0.5;exitY=0;exitDx=0;exitDy=0;" parent="uLEs7efsvwYyZU_ZEpff-1" source="t2hq5Q3vTPY8hlob5dI2-7" target="5yFkNNCPkQba19u_5EOz-3" edge="1">
          <mxGeometry relative="1" as="geometry" />
        </mxCell>
        <mxCell id="t2hq5Q3vTPY8hlob5dI2-15" style="edgeStyle=orthogonalEdgeStyle;rounded=0;orthogonalLoop=1;jettySize=auto;html=1;exitX=1;exitY=0.5;exitDx=0;exitDy=0;exitPerimeter=0;entryX=0.5;entryY=0;entryDx=0;entryDy=0;entryPerimeter=0;" parent="uLEs7efsvwYyZU_ZEpff-1" source="5yFkNNCPkQba19u_5EOz-12" target="t2hq5Q3vTPY8hlob5dI2-14" edge="1">
          <mxGeometry relative="1" as="geometry">
            <Array as="points">
              <mxPoint x="670" y="145" />
              <mxPoint x="670" y="430" />
              <mxPoint x="523" y="430" />
            </Array>
          </mxGeometry>
        </mxCell>
        <mxCell id="t2hq5Q3vTPY8hlob5dI2-20" style="edgeStyle=orthogonalEdgeStyle;rounded=0;orthogonalLoop=1;jettySize=auto;html=1;exitX=1;exitY=0.5;exitDx=0;exitDy=0;exitPerimeter=0;entryX=0.25;entryY=1;entryDx=0;entryDy=0;" parent="uLEs7efsvwYyZU_ZEpff-1" source="t2hq5Q3vTPY8hlob5dI2-14" target="5yFkNNCPkQba19u_5EOz-37" edge="1">
          <mxGeometry relative="1" as="geometry" />
        </mxCell>
        <mxCell id="t2hq5Q3vTPY8hlob5dI2-22" style="edgeStyle=orthogonalEdgeStyle;rounded=0;orthogonalLoop=1;jettySize=auto;html=1;exitX=1;exitY=0.5;exitDx=0;exitDy=0;entryX=0.5;entryY=1;entryDx=0;entryDy=0;" parent="uLEs7efsvwYyZU_ZEpff-1" source="5yFkNNCPkQba19u_5EOz-19" target="t2hq5Q3vTPY8hlob5dI2-21" edge="1">
          <mxGeometry relative="1" as="geometry" />
        </mxCell>
        <mxCell id="t2hq5Q3vTPY8hlob5dI2-25" style="edgeStyle=orthogonalEdgeStyle;rounded=0;orthogonalLoop=1;jettySize=auto;html=1;exitX=0;exitY=0.5;exitDx=0;exitDy=0;exitPerimeter=0;entryX=0.25;entryY=1;entryDx=0;entryDy=0;" parent="uLEs7efsvwYyZU_ZEpff-1" source="t2hq5Q3vTPY8hlob5dI2-14" target="5yFkNNCPkQba19u_5EOz-7" edge="1">
          <mxGeometry relative="1" as="geometry" />
        </mxCell>
        <mxCell id="pYo4tnADKksWNFbosHet-2" style="edgeStyle=orthogonalEdgeStyle;rounded=0;orthogonalLoop=1;jettySize=auto;html=1;exitX=0.75;exitY=1;exitDx=0;exitDy=0;entryX=0.824;entryY=-0.067;entryDx=0;entryDy=0;entryPerimeter=0;" edge="1" parent="uLEs7efsvwYyZU_ZEpff-1" source="5yFkNNCPkQba19u_5EOz-37" target="pYo4tnADKksWNFbosHet-1">
          <mxGeometry relative="1" as="geometry" />
        </mxCell>
      </root>
    </mxGraphModel>
  </diagram>
</mxfile>
